{"title":"APPALOOSA 2008 IN H.264 AAC MP4 BY WINKER","uid":5350604,"size":1048808800,"categoryP":"video","categoryS":"movies","magnet":"?xt=urn:btih:e2152caf1c9f0fbbfce3c49c6006e35e254756cf&amp;dn=APPALOOSA+2008+IN+H.264+AAC+MP4+BY+WINKER&amp;tr=udp%3A%2F%2Ftracker.openbittorrent.com%3A80&amp;tr=udp%3A%2F%2Fopen.demonii.com%3A1337&amp;tr=udp%3A%2F%2Ftracker.coppersurfer.tk%3A6969&amp;tr=udp%3A%2F%2Fexodus.desync.com%3A6969","seeders":0,"leechers":1,"uploader":"alanwatson","files":-1,"time":1265779011,"description":"When two gunmen, Virgil Cole (Ed Harris) and Everett Hitch (Viggo Mortenson), arrive in Appaloosa they find a small, dusty and lawless town suffering at the hands of renegade rancher Randall Bragg (Jeremy Irons). Bragg has not only taken supplies, horses, and women for his own, but also has left the city marshal and a deputy for dead. In Bragg they an unusually wily adversary who raises the stakes by playing with emotions. It is now up to Cole and Hitch to stand against the actions of the renegade rancher, which have already taken their toll on the town.\n\nFormat : MPEG-4\nFormat profile : Base Media / Version 2\nCodec ID : mp42\nFile size : 1 000 MiB\nDuration : 1h 50mn\nOverall bit rate : 1 263 Kbps\nEncoded date : UTC 2010-02-09 23:05:24\nTagged date : UTC 2010-02-10 03:04:24\nWriting application : HandBrake 0.9.3 2008112300\n\nVideo\nID : 1\nFormat : AVC\nFormat/Info : Advanced Video Codec\nFormat profile : &lt;a class=&quot;__cf_email__&quot; href=&quot;/cdn-cgi/l/email-protection&quot; data-cfemail=&quot;a6ebc7cfc8e6ea928896&quot;&gt;[email&amp;#160;protected]&lt;/a&gt;&lt;script cf-hash='f9e31' type=&quot;text/javascript&quot;&gt;\n/* &lt;![CDATA[ */!function(){try{var t=&quot;currentScript&quot;in document?document.currentScript:function(){for(var t=document.getElementsByTagName(&quot;script&quot;),e=t.length;e--;)if(t[e].getAttribute(&quot;cf-hash&quot;))return t[e]}();if(t&amp;&amp;t.previousSibling){var e,r,n,i,c=t.previousSibling,a=c.getAttribute(&quot;data-cfemail&quot;);if(a){for(e=&quot;&quot;,r=parseInt(a.substr(0,2),16),n=2;a.length-n;n+=2)i=parseInt(a.substr(n,2),16)^r,e+=String.fromCharCode(i);e=document.createTextNode(e),c.parentNode.replaceChild(e,c)}}}catch(u){}}();/* ]]&gt; */&lt;/script&gt;\nFormat settings, CABAC : Yes\nFormat settings, ReFrames : 3 frames\nCodec ID : avc1\nCodec ID/Info : Advanced Video Coding\nDuration : 1h 50mn\nBit rate mode : Variable\nBit rate : 1 099 Kbps\nWidth : 720 pixels\nHeight : 428 pixels\nDisplay aspect ratio : 2.35:1\nOriginal display aspect ratio : 2.35:1\nFrame rate mode : Variable\nFrame rate : 25.000 fps\nMinimum frame rate : 12.500 fps\nMaximum frame rate : 25.000 fps\nResolution : 24 bits\nColorimetry : 4:2:0\nScan type : Progressive\nBits/(Pixel*Frame) : 0.143\nStream size : 870 MiB (87%)\nWriting library : x264 core 65\n\n\nAudio\nID : 2\nFormat : AAC\nFormat/Info : Advanced Audio Codec\nFormat version : Version 4\nFormat profile : LC\nFormat settings, SBR : No\nCodec ID : 40\nDuration : 1h 50mn\nBit rate mode : Variable\nBit rate : 160 Kbps\nMaximum bit rate : 200 Kbps\nChannel(s) : 2 channels\nChannel positions : L R\nSampling rate : 48.0 KHz\nResolution : 16 bits\nStream size : 127 MiB (13%)\nLanguage : English\nEncoded date : UTC 2010-02-09 23:05:24\nTagged date : UTC 2010-02-10 03:04:23\n","torrent":{"xt":"urn:btih:e2152caf1c9f0fbbfce3c49c6006e35e254756cf","amp;dn":"APPALOOSA+2008+IN+H.264+AAC+MP4+BY+WINKER","amp;tr":["udp%3A%2F%2Ftracker.openbittorrent.com%3A80","udp%3A%2F%2Fopen.demonii.com%3A1337","udp%3A%2F%2Ftracker.coppersurfer.tk%3A6969","udp%3A%2F%2Fexodus.desync.com%3A6969"],"infoHash":"e2152caf1c9f0fbbfce3c49c6006e35e254756cf","infoHashBuffer":{"type":"Buffer","data":[226,21,44,175,28,159,15,187,252,227,196,156,96,6,227,94,37,71,86,207]},"announce":[],"urlList":[]}}